<?xml version="1.0" encoding="utf-8"?>
<!-- Generator: Adobe Illustrator 19.0.0, SVG Export Plug-In . SVG Version: 6.00 Build 0)  -->
<svg version="1.1" id="Layer_1" xmlns="http://www.w3.org/2000/svg" xmlns:xlink="http://www.w3.org/1999/xlink" x="0px" y="0px"
	 viewBox="0 377.6 612 24.7" style="enable-background:new 0 377.6 612 24.7;" xml:space="preserve">
<style type="text/css">
	.st0{fill:none;}
	.st1{fill:#9BADD9;}
	.st2{fill:#E2E28E;}
	.st3{fill:#74A2D3;}
	.st4{fill:#F9CF7A;}
	.st5{opacity:0.49;fill:#9BADD9;enable-background:new    ;}
	.st6{opacity:0.49;fill:#83C993;enable-background:new    ;}
	.st7{opacity:0.49;fill:#F9CF7A;enable-background:new    ;}
	.st8{opacity:0.49;fill:#A5DCE0;enable-background:new    ;}
	.st9{fill:#83C993;}
	.st10{fill:#E5759E;}
	.st11{fill:#A5DCE0;}
</style>
<g id="XMLID_74_">
	<polygon id="XMLID_151_" class="st0" points="378.9,410.2 375.7,417 378.6,417 379.8,414.4 	"/>
	<polygon id="XMLID_150_" class="st0" points="205.8,396.3 196,417 201.4,417 207.4,404.4 	"/>
	<polygon id="XMLID_149_" class="st0" points="309.1,417 311.2,417 308.9,415.4 	"/>
	<polygon id="XMLID_148_" class="st0" points="290.2,396.6 257.3,417 263.1,417 295.9,400.5 	"/>
	<polygon id="XMLID_147_" class="st1" points="46.1,417 57.6,417 52.6,413.5 	"/>
	<polygon id="XMLID_146_" class="st2" points="188.3,377.6 184.1,377.6 184.4,380.1 	"/>
	<polygon id="XMLID_145_" class="st2" points="165.3,392.3 169.7,380.5 160.4,386.4 154.3,399.4 	"/>
	<polygon id="XMLID_144_" class="st2" points="189.5,417 196,417 205.8,396.3 202.1,377.6 198.4,377.6 187.3,401 	"/>
	<polygon id="XMLID_143_" class="st2" points="152.9,402.3 148.2,412.1 156,417 156.1,417 159.8,407.1 	"/>
	<polygon id="XMLID_142_" class="st3" points="169.7,377.6 170,379.5 170.7,377.6 	"/>
	<polygon id="XMLID_141_" class="st4" points="77.8,377.6 81.6,380.2 82.7,377.6 	"/>
	<polygon id="XMLID_140_" class="st5" points="127.8,407.3 127,403.5 124.9,402 121.2,409.9 121.3,411.4 	"/>
	<polygon id="XMLID_139_" class="st5" points="81.7,393.4 88.3,389.1 87.8,384.5 81.6,380.2 77,390.4 77.7,395.4 	"/>
	<polygon id="XMLID_138_" class="st1" points="81.7,393.4 77.7,395.4 77.7,395.9 	"/>
	<polygon id="XMLID_137_" class="st5" points="81.7,393.4 77.7,395.4 77.7,395.9 	"/>
	<polygon id="XMLID_136_" class="st1" points="101.4,385.8 99.6,389.7 90.9,411.8 90.3,406.4 85.3,417 107.8,417 101.6,385.9 	"/>
	<polygon id="XMLID_135_" class="st5" points="101.4,385.8 99.6,389.7 90.9,411.8 90.3,406.4 85.3,417 107.8,417 101.6,385.9 	"/>
	<polygon id="XMLID_134_" class="st1" points="121.2,409.9 120.1,412.2 121.3,411.4 	"/>
	<polygon id="XMLID_133_" class="st5" points="121.2,409.9 120.1,412.2 121.3,411.4 	"/>
	<polygon id="XMLID_132_" class="st2" points="146.1,416.7 145.9,417 156,417 148.2,412.1 	"/>
	<polygon id="XMLID_131_" class="st5" points="146.1,416.7 145.9,417 156,417 148.2,412.1 	"/>
	<polygon id="XMLID_130_" class="st2" points="127.8,407.3 121.3,411.4 120.1,412.2 117.8,417 124.1,417 129.1,413.8 	"/>
	<polygon id="XMLID_129_" class="st5" points="127.8,407.3 121.3,411.4 120.1,412.2 117.8,417 124.1,417 129.1,413.8 	"/>
	<polygon id="XMLID_128_" class="st4" points="87,377.6 82.7,377.6 81.6,380.2 87.8,384.5 	"/>
	<polygon id="XMLID_127_" class="st5" points="87,377.6 82.7,377.6 81.6,380.2 87.8,384.5 	"/>
	<polygon id="XMLID_126_" class="st4" points="99.6,389.7 101.4,385.8 101.2,385.6 	"/>
	<polygon id="XMLID_125_" class="st5" points="99.6,389.7 101.4,385.8 101.2,385.6 	"/>
	<polygon id="XMLID_124_" class="st6" points="170,379.5 169.7,380.5 170.2,380.2 	"/>
	<polygon id="XMLID_123_" class="st2" points="184.4,380.1 184.1,377.6 180.1,377.6 176.5,385.1 	"/>
	<polygon id="XMLID_122_" class="st6" points="184.4,380.1 184.1,377.6 180.1,377.6 176.5,385.1 	"/>
	<polygon id="XMLID_121_" class="st2" points="180.2,416 186.5,412.8 186.9,417 189.5,417 187.3,401 	"/>
	<polygon id="XMLID_120_" class="st6" points="180.2,416 186.5,412.8 186.9,417 189.5,417 187.3,401 	"/>
	<polygon id="XMLID_119_" class="st2" points="171.8,388.2 170.2,380.2 169.7,380.5 165.3,392.3 	"/>
	<polygon id="XMLID_118_" class="st6" points="171.8,388.2 170.2,380.2 169.7,380.5 165.3,392.3 	"/>
	<polygon id="XMLID_117_" class="st2" points="156.1,417 174,417 159.8,407.1 	"/>
	<polygon id="XMLID_116_" class="st6" points="156.1,417 174,417 159.8,407.1 	"/>
	<polygon id="XMLID_115_" class="st3" points="171.8,388.2 176.5,385.1 180.1,377.6 170.7,377.6 170,379.5 170.2,380.2 	"/>
	<polygon id="XMLID_114_" class="st6" points="171.8,388.2 176.5,385.1 180.1,377.6 170.7,377.6 170,379.5 170.2,380.2 	"/>
	<polygon id="XMLID_113_" class="st7" points="34.5,417 73.9,397.3 77,390.4 75.2,377.6 25.6,377.6 19.1,395 23.5,417 	"/>
	<polygon id="XMLID_112_" class="st7" points="18.5,417 18.5,417 12.5,412.9 	"/>
	<polygon id="XMLID_111_" class="st1" points="51.4,412.7 73.2,398.8 73.9,397.3 34.5,417 46.1,417 52.6,413.5 	"/>
	<polygon id="XMLID_110_" class="st7" points="51.4,412.7 73.2,398.8 73.9,397.3 34.5,417 46.1,417 52.6,413.5 	"/>
	<polygon id="XMLID_109_" class="st5" points="77.7,395.4 77,390.4 73.9,397.3 	"/>
	<polygon id="XMLID_108_" class="st7" points="77.7,395.4 77,390.4 73.9,397.3 	"/>
	<polygon id="XMLID_107_" class="st1" points="77.7,395.9 77.7,395.4 73.9,397.3 73.2,398.8 	"/>
	<polygon id="XMLID_106_" class="st5" points="77.7,395.9 77.7,395.4 73.9,397.3 73.2,398.8 	"/>
	<polygon id="XMLID_105_" class="st7" points="77.7,395.9 77.7,395.4 73.9,397.3 73.2,398.8 	"/>
	<polygon id="XMLID_104_" class="st6" points="214.9,411.4 236.5,397.6 227.3,417 248.4,417 250.9,410.1 251.9,417 257.3,417 
		290.2,396.6 271.5,383.6 277.4,379.8 274.4,377.6 229.8,377.6 230.6,378.2 	"/>
	<polygon id="XMLID_103_" class="st6" points="207.4,404.4 201.4,417 206.1,417 209.5,414.9 	"/>
	<polygon id="XMLID_102_" class="st8" points="248.4,417 251.9,417 250.9,410.1 	"/>
	<polygon id="XMLID_101_" class="st6" points="248.4,417 251.9,417 250.9,410.1 	"/>
	<polygon id="XMLID_100_" class="st1" points="180.2,416 179.7,417 186.9,417 186.5,412.8 	"/>
	<polygon id="XMLID_99_" class="st2" points="206.1,417 209.9,417 209.5,414.9 	"/>
	<polygon id="XMLID_98_" class="st2" points="214.9,411.4 212.3,417 227.3,417 236.5,397.6 	"/>
	<polygon id="XMLID_97_" class="st3" points="207.4,404.4 209.5,414.9 209.9,417 212.3,417 214.9,411.4 230.6,378.2 229.8,377.6 
		202.1,377.6 205.8,396.3 	"/>
	<polygon id="XMLID_96_" class="st4" points="176.5,385.1 171.8,388.2 165.3,392.3 154.3,399.4 152.9,402.3 159.8,407.1 174,417 
		179.7,417 180.2,416 187.3,401 198.4,377.6 188.3,377.6 184.4,380.1 	"/>
	<polygon id="XMLID_95_" class="st9" points="136.2,409.9 132.8,417 145.9,417 146.1,416.7 	"/>
	<polygon id="XMLID_94_" class="st9" points="129.1,413.8 135.8,409.6 127,403.5 127.8,407.3 	"/>
	<polygon id="XMLID_93_" class="st1" points="88.3,389.1 100.6,381.2 99.9,377.6 87,377.6 87.8,384.5 	"/>
	<polygon id="XMLID_92_" class="st1" points="100.4,385 90.3,406.4 90.9,411.8 99.6,389.7 101.2,385.6 	"/>
	<polygon id="XMLID_91_" class="st1" points="101.3,384.3 101.1,383.5 100.5,384.7 	"/>
	<polygon id="XMLID_90_" class="st10" points="124.9,402 127,403.5 135.8,409.6 136.6,409 136.2,409.9 146.1,416.7 148.2,412.1 
		152.9,402.3 154.3,399.4 160.4,386.4 164.6,377.6 113.4,377.6 130.8,389.6 	"/>
	<polygon id="XMLID_89_" class="st10" points="100.4,385 101.2,385.6 101.4,385.8 101.6,385.9 101.3,384.3 100.5,384.7 	"/>
	<polygon id="XMLID_88_" class="st9" points="18.5,417 23.5,417 19.1,395 16.8,383.5 5.3,407.9 12.5,412.9 	"/>
	<polygon id="XMLID_87_" class="st10" points="12.5,412.9 5.3,407.9 0.9,417 18.5,417 	"/>
	<polygon id="XMLID_86_" class="st2" points="136.6,409 135.8,409.6 129.1,413.8 124.1,417 132.8,417 136.2,409.9 	"/>
	<polygon id="XMLID_85_" class="st3" points="102.9,379.8 101.1,383.5 101.3,384.3 101.6,385.9 107.8,417 117.8,417 120.1,412.2 
		121.2,409.9 124.9,402 130.8,389.6 113.4,377.6 99.9,377.6 100.6,381.2 	"/>
	<polygon id="XMLID_84_" class="st4" points="100.4,385 100.5,384.7 101.1,383.5 102.9,379.8 100.6,381.2 88.3,389.1 81.7,393.4 
		77.7,395.9 73.2,398.8 51.4,412.7 52.6,413.5 57.6,417 85.3,417 90.3,406.4 	"/>
	<polygon id="XMLID_83_" class="st1" points="295.9,400.5 263.1,417 309.1,417 308.9,415.4 305.2,412.8 308.4,410.8 306.6,395.2 
		300.4,398.3 298.5,402.3 	"/>
	<polygon id="XMLID_82_" class="st2" points="308.9,415.4 311.2,417 339.1,417 356.7,379.9 335.1,393.7 330.8,402.8 329.7,397.2 
		308.4,410.8 305.2,412.8 	"/>
	<polygon id="XMLID_81_" class="st3" points="335.1,393.7 342.7,377.6 325.8,377.6 329.7,397.2 330.8,402.8 	"/>
	<polygon id="XMLID_80_" class="st4" points="290.2,396.6 295.9,400.5 298.5,402.3 300.4,398.3 310.2,377.6 280.9,377.6 
		277.4,379.8 271.5,383.6 	"/>
	<polygon id="XMLID_79_" class="st10" points="421.2,403.9 425.8,417 440.2,417 	"/>
	<polygon id="XMLID_78_" class="st11" points="395.1,417 416.2,417 387.9,397.4 384.2,405.2 396.6,413.8 	"/>
	<polygon id="XMLID_77_" class="st11" points="378.6,417 380.3,417 379.8,414.4 	"/>
	<polygon id="XMLID_76_" class="st3" points="378.9,410.2 379.8,414.4 380.3,417 395.1,417 396.6,413.8 384.2,405.2 377,400.2 
		378.7,408.8 380,408 	"/>
	<polygon id="XMLID_75_" class="st4" points="378.9,410.2 380,408 378.7,408.8 365.9,417 375.7,417 	"/>
</g>
<g id="XMLID_2_">
	<polygon id="XMLID_73_" class="st0" points="462.4,396.3 452.6,417 457.9,417 464,404.5 	"/>
	<polygon id="XMLID_72_" class="st0" points="565.7,417 567.8,417 565.5,415.4 	"/>
	<polygon id="XMLID_71_" class="st0" points="546.8,396.6 513.9,417 519.6,417 552.5,400.6 	"/>
	<polygon id="XMLID_70_" class="st1" points="302.7,417 314.2,417 309.2,413.5 	"/>
	<polygon id="XMLID_69_" class="st2" points="444.9,377.6 440.7,377.6 441,380.1 	"/>
	<polygon id="XMLID_68_" class="st2" points="421.8,392.3 426.2,380.5 417,386.4 410.8,399.4 	"/>
	<polygon id="XMLID_67_" class="st2" points="446.1,417 452.6,417 462.4,396.3 458.7,377.6 455,377.6 443.9,401 	"/>
	<polygon id="XMLID_66_" class="st2" points="409.4,402.3 404.8,412.1 412.5,417 412.7,417 416.3,407.1 	"/>
	<polygon id="XMLID_65_" class="st3" points="426.2,377.6 426.6,379.5 427.3,377.6 	"/>
	<polygon id="XMLID_64_" class="st4" points="334.3,377.6 338.1,380.2 339.3,377.6 	"/>
	<polygon id="XMLID_63_" class="st5" points="384.4,407.3 383.6,403.5 381.5,402 377.7,409.9 377.9,411.4 	"/>
	<polygon id="XMLID_62_" class="st5" points="338.2,393.4 344.9,389.1 344.4,384.5 338.1,380.2 333.5,390.4 334.2,395.4 	"/>
	<polygon id="XMLID_61_" class="st1" points="338.2,393.4 334.2,395.4 334.3,395.9 	"/>
	<polygon id="XMLID_60_" class="st5" points="338.2,393.4 334.2,395.4 334.3,395.9 	"/>
	<polygon id="XMLID_59_" class="st1" points="358,385.8 356.1,389.7 347.5,411.8 346.9,406.4 341.8,417 364.3,417 358.1,385.9 	"/>
	<polygon id="XMLID_58_" class="st5" points="358,385.8 356.1,389.7 347.5,411.8 346.9,406.4 341.8,417 364.3,417 358.1,385.9 	"/>
	<polygon id="XMLID_57_" class="st1" points="377.7,409.9 376.6,412.2 377.9,411.4 	"/>
	<polygon id="XMLID_56_" class="st5" points="377.7,409.9 376.6,412.2 377.9,411.4 	"/>
	<polygon id="XMLID_55_" class="st2" points="402.6,416.7 402.5,417 412.5,417 404.8,412.1 	"/>
	<polygon id="XMLID_54_" class="st5" points="402.6,416.7 402.5,417 412.5,417 404.8,412.1 	"/>
	<polygon id="XMLID_53_" class="st2" points="384.4,407.3 377.9,411.4 376.6,412.2 374.4,417 380.7,417 385.7,413.8 	"/>
	<polygon id="XMLID_52_" class="st5" points="384.4,407.3 377.9,411.4 376.6,412.2 374.4,417 380.7,417 385.7,413.8 	"/>
	<polygon id="XMLID_51_" class="st4" points="343.6,377.6 339.3,377.6 338.1,380.2 344.4,384.5 	"/>
	<polygon id="XMLID_50_" class="st5" points="343.6,377.6 339.3,377.6 338.1,380.2 344.4,384.5 	"/>
	<polygon id="XMLID_49_" class="st4" points="356.1,389.7 358,385.8 357.8,385.6 	"/>
	<polygon id="XMLID_48_" class="st5" points="356.1,389.7 358,385.8 357.8,385.6 	"/>
	<polygon id="XMLID_47_" class="st6" points="426.6,379.5 426.2,380.5 426.7,380.2 	"/>
	<polygon id="XMLID_46_" class="st2" points="441,380.1 440.7,377.6 436.7,377.6 433.1,385.2 	"/>
	<polygon id="XMLID_45_" class="st6" points="441,380.1 440.7,377.6 436.7,377.6 433.1,385.2 	"/>
	<polygon id="XMLID_44_" class="st2" points="436.8,416 443,412.8 443.5,417 446.1,417 443.9,401 	"/>
	<polygon id="XMLID_43_" class="st6" points="436.8,416 443,412.8 443.5,417 446.1,417 443.9,401 	"/>
	<polygon id="XMLID_42_" class="st2" points="428.3,388.2 426.7,380.2 426.2,380.5 421.8,392.3 	"/>
	<polygon id="XMLID_41_" class="st6" points="428.3,388.2 426.7,380.2 426.2,380.5 421.8,392.3 	"/>
	<polygon id="XMLID_40_" class="st2" points="412.7,417 430.6,417 416.3,407.1 	"/>
	<polygon id="XMLID_39_" class="st6" points="412.7,417 430.6,417 416.3,407.1 	"/>
	<polygon id="XMLID_38_" class="st3" points="428.3,388.2 433.1,385.2 436.7,377.6 427.3,377.6 426.6,379.5 426.7,380.2 	"/>
	<polygon id="XMLID_37_" class="st6" points="428.3,388.2 433.1,385.2 436.7,377.6 427.3,377.6 426.6,379.5 426.7,380.2 	"/>
	<polygon id="XMLID_36_" class="st7" points="291,417 330.4,397.3 333.5,390.4 331.8,377.6 282.1,377.6 275.7,395.1 280,417 	"/>
	<polygon id="XMLID_35_" class="st7" points="275,417 275,417 269.1,412.9 	"/>
	<polygon id="XMLID_34_" class="st1" points="308,412.7 329.8,398.8 330.4,397.3 291,417 302.7,417 309.2,413.5 	"/>
	<polygon id="XMLID_33_" class="st7" points="308,412.7 329.8,398.8 330.4,397.3 291,417 302.7,417 309.2,413.5 	"/>
	<polygon id="XMLID_32_" class="st5" points="334.2,395.4 333.5,390.4 330.4,397.3 	"/>
	<polygon id="XMLID_31_" class="st7" points="334.2,395.4 333.5,390.4 330.4,397.3 	"/>
	<polygon id="XMLID_30_" class="st1" points="334.3,395.9 334.2,395.4 330.4,397.3 329.8,398.8 	"/>
	<polygon id="XMLID_29_" class="st5" points="334.3,395.9 334.2,395.4 330.4,397.3 329.8,398.8 	"/>
	<polygon id="XMLID_28_" class="st7" points="334.3,395.9 334.2,395.4 330.4,397.3 329.8,398.8 	"/>
	<polygon id="XMLID_27_" class="st6" points="471.5,411.4 493.1,397.6 483.9,417 505,417 507.5,410.1 508.5,417 513.9,417 
		546.8,396.6 528,383.6 534,379.8 531,377.6 486.3,377.6 487.2,378.2 	"/>
	<polygon id="XMLID_26_" class="st6" points="464,404.5 457.9,417 462.7,417 466.1,414.9 	"/>
	<polygon id="XMLID_25_" class="st8" points="505,417 508.5,417 507.5,410.1 	"/>
	<polygon id="XMLID_24_" class="st6" points="505,417 508.5,417 507.5,410.1 	"/>
	<polygon id="XMLID_23_" class="st1" points="436.8,416 436.3,417 443.5,417 443,412.8 	"/>
	<polygon id="XMLID_22_" class="st2" points="462.7,417 466.5,417 466.1,414.9 	"/>
	<polygon id="XMLID_21_" class="st2" points="471.5,411.4 468.8,417 483.9,417 493.1,397.6 	"/>
	<polygon id="XMLID_20_" class="st3" points="464,404.5 466.1,414.9 466.5,417 468.8,417 471.5,411.4 487.2,378.2 486.3,377.6 
		458.7,377.6 462.4,396.3 	"/>
	<polygon id="XMLID_19_" class="st4" points="433.1,385.2 428.3,388.2 421.8,392.3 410.8,399.4 409.4,402.3 416.3,407.1 430.6,417 
		436.3,417 436.8,416 443.9,401 455,377.6 444.9,377.6 441,380.1 	"/>
	<polygon id="XMLID_18_" class="st9" points="392.8,409.9 389.4,417 402.5,417 402.6,416.7 	"/>
	<polygon id="XMLID_17_" class="st9" points="385.7,413.8 392.4,409.6 383.6,403.5 384.4,407.3 	"/>
	<polygon id="XMLID_16_" class="st1" points="344.9,389.1 357.2,381.2 356.5,377.6 343.6,377.6 344.4,384.5 	"/>
	<polygon id="XMLID_15_" class="st1" points="357,385 346.9,406.4 347.5,411.8 356.1,389.7 357.8,385.6 	"/>
	<polygon id="XMLID_14_" class="st1" points="357.8,384.3 357.7,383.5 357.1,384.7 	"/>
	<polygon id="XMLID_13_" class="st10" points="381.5,402 383.6,403.5 392.4,409.6 393.2,409 392.8,409.9 402.6,416.7 404.8,412.1 
		409.4,402.3 410.8,399.4 417,386.4 421.1,377.6 369.9,377.6 387.3,389.6 	"/>
	<polygon id="XMLID_12_" class="st10" points="357,385 357.8,385.6 358,385.8 358.1,385.9 357.8,384.3 357.1,384.7 	"/>
	<polygon id="XMLID_11_" class="st9" points="275,417 280,417 275.7,395.1 273.4,383.5 261.8,407.9 269.1,412.9 	"/>
	<polygon id="XMLID_10_" class="st10" points="269.1,412.9 261.8,407.9 257.5,417 275,417 	"/>
	<polygon id="XMLID_9_" class="st2" points="393.2,409 392.4,409.6 385.7,413.8 380.7,417 389.4,417 392.8,409.9 	"/>
	<polygon id="XMLID_8_" class="st3" points="359.4,379.8 357.7,383.5 357.8,384.3 358.1,385.9 364.3,417 374.4,417 376.6,412.2 
		377.7,409.9 381.5,402 387.3,389.6 369.9,377.6 356.5,377.6 357.2,381.2 	"/>
	<polygon id="XMLID_7_" class="st4" points="357,385 357.1,384.7 357.7,383.5 359.4,379.8 357.2,381.2 344.9,389.1 338.2,393.4 
		334.3,395.9 329.8,398.8 308,412.7 309.2,413.5 314.2,417 341.8,417 346.9,406.4 	"/>
	<polygon id="XMLID_6_" class="st1" points="552.5,400.6 519.6,417 565.7,417 565.5,415.4 561.8,412.8 565,410.8 563.2,395.2 
		556.9,398.3 555,402.3 	"/>
	<polygon id="XMLID_5_" class="st2" points="565.5,415.4 567.8,417 595.7,417 613.2,379.9 591.7,393.7 587.4,402.8 586.2,397.2 
		565,410.8 561.8,412.8 	"/>
	<polygon id="XMLID_4_" class="st3" points="591.7,393.7 599.3,377.6 582.3,377.6 586.2,397.2 587.4,402.8 	"/>
	<polygon id="XMLID_3_" class="st4" points="546.8,396.6 552.5,400.6 555,402.3 556.9,398.3 566.7,377.6 537.4,377.6 534,379.8 
		528,383.6 	"/>
</g>
</svg>
