<?xml version="1.0" encoding="utf-8"?>
<!-- Generator: Adobe Illustrator 19.0.0, SVG Export Plug-In . SVG Version: 6.00 Build 0)  -->
<svg version="1.1" id="Layer_1" xmlns="http://www.w3.org/2000/svg" xmlns:xlink="http://www.w3.org/1999/xlink" x="0px" y="0px"
	 viewBox="0 0 300.5 525.6" style="enable-background:new 0 0 300.5 525.6;" xml:space="preserve">
<style type="text/css">
	.st0{opacity:0.47;}
	.st1{fill:none;}
	.st2{fill:#9BADD9;}
	.st3{fill:#83C993;}
	.st4{fill:#E5759E;}
	.st5{fill:#E2E28E;}
	.st6{fill:#74A2D3;}
	.st7{fill:#F9CF7A;}
	.st8{fill:#A5DCE0;}
	.st9{opacity:0.49;fill:#83C993;}
	.st10{opacity:0.49;fill:#9BADD9;}
	.st11{opacity:0.49;fill:#E5759E;}
	.st12{opacity:0.49;fill:none;stroke:#83C993;stroke-width:0;stroke-linecap:round;stroke-linejoin:round;}
	.st13{opacity:0.49;fill:none;stroke:#E5759E;stroke-width:0;stroke-linecap:round;stroke-linejoin:round;}
	.st14{opacity:0.49;fill:#F9CF7A;}
	.st15{opacity:0.49;fill:#A5DCE0;}
</style>
<g id="XMLID_2_" class="st0">
	<polygon id="XMLID_315_" class="st1" points="231.4,204.3 240.1,220.4 241.5,218 234.1,203.9 	"/>
	<polygon id="XMLID_314_" class="st1" points="183.8,217.6 177.4,218.2 191.3,224.3 192.3,222.3 	"/>
	<polygon id="XMLID_313_" class="st1" points="193.5,219.8 198.5,209.6 188.8,211.2 	"/>
	<polygon id="XMLID_312_" class="st1" points="109.4,180.7 106.9,187.4 119.8,193.1 122.4,187.9 	"/>
	<polygon id="XMLID_311_" class="st1" points="218.6,6.3 215.1,-0.1 204.5,-0.1 218.1,7.4 	"/>
	<polygon id="XMLID_310_" class="st1" points="272.8,388 250.6,375.6 252.2,379.3 269.3,388.8 	"/>
	<polygon id="XMLID_309_" class="st1" points="233.4,300.6 248.5,265.1 218,272.2 	"/>
	<polygon id="XMLID_308_" class="st1" points="129.8,172.6 120.4,152 115.6,164.6 125.1,182.2 	"/>
	<polygon id="XMLID_307_" class="st1" points="200.2,319.3 209.8,337 205.6,334.7 209.9,337.1 217.8,320.9 189.6,305.2 198.7,321.9 
			"/>
	<polygon id="XMLID_306_" class="st1" points="234.6,395.2 223.4,389 220.1,395.5 221.2,398.5 246.2,412.5 241.4,398.9 234.5,395 	
		"/>
	<polygon id="XMLID_305_" class="st1" points="255.8,439.5 250,423.3 235.7,447.7 	"/>
	<polygon id="XMLID_304_" class="st1" points="237.6,388.1 235.3,381.6 227.7,382.6 234,394.2 	"/>
	<polygon id="XMLID_303_" class="st1" points="281,305 284.4,299.3 264.4,261.4 262.6,261.7 	"/>
	<polygon id="XMLID_302_" class="st1" points="277.7,216.5 284.6,214.9 259.1,200.7 263.3,208.3 	"/>
	<polygon id="XMLID_301_" class="st1" points="268.4,318 244.6,321.2 255.1,340.5 	"/>
	<polygon id="XMLID_300_" class="st1" points="241.1,222.1 214.2,207.1 211.1,207.6 221.5,235 216.8,235.5 254.1,251.8 256.3,246.8 
		259.4,254.1 260.9,254.8 244.6,223.9 240.9,221.8 	"/>
	<polygon id="XMLID_299_" class="st1" points="177.7,471.4 210.9,457.8 199.4,425.1 	"/>
	<polygon id="XMLID_298_" class="st1" points="251.3,201.4 251.5,201.1 250.9,201.2 	"/>
	<polygon id="XMLID_297_" class="st1" points="184.6,295.9 195.3,277.6 176.9,281.9 	"/>
	<polygon id="XMLID_296_" class="st1" points="181.3,381.9 165.4,408.9 190.9,401.2 184.8,383.8 	"/>
	<polygon id="XMLID_295_" class="st1" points="187.3,359.2 191.9,367.5 198.3,356.6 	"/>
	<polygon id="XMLID_294_" class="st1" points="210.5,385 209.8,381.4 194.9,373.1 203.3,388.5 207.6,390.9 	"/>
	<polygon id="XMLID_293_" class="st1" points="112.9,401.8 148.7,421.8 146.9,414.4 161.2,410.1 152.5,385.6 	"/>
	<polygon id="XMLID_292_" class="st1" points="249,264 249,263.9 248.8,263.9 	"/>
	<polygon id="XMLID_291_" class="st2" points="247,58.5 238.3,42.5 244.6,57.4 	"/>
	<polygon id="XMLID_290_" class="st2" points="219.7,8.3 218.6,6.3 218.1,7.4 	"/>
	<polygon id="XMLID_289_" class="st2" points="222.8,47.4 223.8,45.1 219.8,46 	"/>
	<polygon id="XMLID_288_" class="st2" points="229.9,30.6 209.1,35.5 224.3,43.9 	"/>
	<polygon id="XMLID_287_" class="st2" points="265,70.2 260.9,70.8 263.8,72.3 	"/>
	<polygon id="XMLID_286_" class="st2" points="270,61.6 259.9,39.6 248.4,59.2 266.5,67.6 	"/>
	<polygon id="XMLID_285_" class="st2" points="188.8,100.6 187.1,97.6 185,96.4 188,102 	"/>
	<polygon id="XMLID_284_" class="st3" points="122.5,32.2 99.9,37.5 116.4,46.7 	"/>
	<polygon id="XMLID_283_" class="st3" points="141.8,49.5 150.7,34.4 146.4,26.8 144.8,27 124.6,31.7 132.8,50.9 	"/>
	<polygon id="XMLID_282_" class="st3" points="113.2,54.1 115.9,47.8 85.4,54.9 87.3,58.3 	"/>
	<polygon id="XMLID_281_" class="st3" points="140.3,100.1 140,100.8 146.4,112.4 161.5,119 170.6,116.9 171.1,116 142.1,99.8 	"/>
	<polygon id="XMLID_280_" class="st3" points="188,102 185,96.4 183.9,95.8 187.6,102.6 	"/>
	<polygon id="XMLID_279_" class="st3" points="183.3,95.4 179,93 181.7,98 	"/>
	<polygon id="XMLID_278_" class="st4" points="56.7,13.4 99.9,37.5 122.5,32.2 123.7,29.4 124.6,31.7 144.8,27 136.5,27.8 
		129.8,10.1 118.7,3.9 118.8,4.1 111.1,-0.1 102.2,-0.1 106.8,12 84.1,14.2 88.9,4.2 81.1,-0.1 67,-0.1 82,27.5 	"/>
	<polygon id="XMLID_277_" class="st4" points="56.7,13.4 64.7,-0.1 40.6,-0.1 20.3,34.4 39.5,42.8 	"/>
	<polygon id="XMLID_276_" class="st4" points="91.1,-0.1 88.1,-0.1 89.7,2.7 	"/>
	<polygon id="XMLID_275_" class="st4" points="164.6,10.7 170,1.5 161.5,3.5 157.1,11 162.8,13.8 	"/>
	<polygon id="XMLID_274_" class="st4" points="5.4,59.7 14.3,57.6 11,50.2 	"/>
	<polygon id="XMLID_273_" class="st4" points="180.3,7.1 184.5,-0.1 177.2,-0.1 176.5,0 	"/>
	<polygon id="XMLID_272_" class="st4" points="120.1,-0.1 116.4,-0.1 118.2,3.1 	"/>
	<polygon id="XMLID_271_" class="st4" points="144.7,-0.1 134.8,-0.1 138,1.4 	"/>
	<polygon id="XMLID_270_" class="st4" points="219.7,8.3 218.1,7.4 204.5,-0.1 203.6,-0.1 220.1,9.1 	"/>
	<polygon id="XMLID_269_" class="st5" points="300.5,197.4 300.5,193.2 298.4,193.5 	"/>
	<polygon id="XMLID_268_" class="st5" points="288,174.3 298,178.7 293,169.4 282,163.3 	"/>
	<polygon id="XMLID_267_" class="st5" points="258.7,199.9 259.1,200.7 284.6,214.9 300.5,211.1 300.5,207.4 280.6,196.4 	"/>
	<polygon id="XMLID_266_" class="st5" points="275.4,168.8 279.5,161.9 271.2,157.3 267,165.1 	"/>
	<polygon id="XMLID_265_" class="st6" points="300.5,178.7 298.9,179.1 300.5,179.8 	"/>
	<polygon id="XMLID_264_" class="st7" points="300.5,86.8 298.3,90.6 300.5,91.8 	"/>
	<polygon id="XMLID_263_" class="st8" points="22.7,96.2 27.9,87.3 25.7,82.4 2.9,121.2 57.3,151.6 35.1,103.1 	"/>
	<polygon id="XMLID_262_" class="st8" points="125.1,182.2 115.6,164.6 109.4,180.7 122.4,187.9 	"/>
	<polygon id="XMLID_261_" class="st3" points="125.1,182.2 122.4,187.9 119.8,193.1 144,203.6 129.8,172.6 	"/>
	<polygon id="XMLID_260_" class="st3" points="176.1,213.3 168.7,214.5 177.4,218.2 183.8,217.6 	"/>
	<polygon id="XMLID_259_" class="st3" points="104.1,225.4 117.9,224 111.5,210.1 	"/>
	<polygon id="XMLID_258_" class="st9" points="-0.4,25.3 11,50.2 20.3,34.4 	"/>
	<polygon id="XMLID_257_" class="st9" points="61.4,62.5 62.8,60.2 59.4,61 60.2,62.7 	"/>
	<polygon id="XMLID_256_" class="st9" points="33.4,53.1 14.3,57.6 19.6,69.2 24.3,68.5 	"/>
	<polygon id="XMLID_255_" class="st4" points="39.5,42.8 20.3,34.4 11,50.2 14.3,57.6 33.4,53.1 	"/>
	<polygon id="XMLID_254_" class="st9" points="39.5,42.8 20.3,34.4 11,50.2 14.3,57.6 33.4,53.1 	"/>
	<polygon id="XMLID_253_" class="st8" points="59.4,61 44.3,64.6 44.7,65.2 60.2,62.7 	"/>
	<polygon id="XMLID_252_" class="st9" points="59.4,61 44.3,64.6 44.7,65.2 60.2,62.7 	"/>
	<polygon id="XMLID_251_" class="st8" points="40.5,65.9 40.8,65.4 35.2,66.7 40.5,65.9 	"/>
	<polygon id="XMLID_250_" class="st9" points="40.5,65.9 40.8,65.4 35.2,66.7 40.5,65.9 	"/>
	<polygon id="XMLID_249_" class="st10" points="234,143.8 237.7,135 222,137.1 	"/>
	<polygon id="XMLID_248_" class="st10" points="231.5,149.6 233.5,144.9 225.2,146.9 	"/>
	<polygon id="XMLID_247_" class="st10" points="275.3,136.9 278.5,136.1 279.8,134 273.1,130.2 271.8,130.4 	"/>
	<polygon id="XMLID_246_" class="st10" points="287.1,90.7 290.7,97.4 294.6,96.8 298.3,90.6 289.6,86 285.4,86.7 	"/>
	<polygon id="XMLID_245_" class="st10" points="248.3,143.2 257.2,141.1 259.3,137.6 251.4,133.2 244.4,134.1 	"/>
	<polygon id="XMLID_244_" class="st10" points="155.7,25.9 147.2,26.7 151,33.8 	"/>
	<polygon id="XMLID_243_" class="st10" points="253.5,147.4 249.1,145 251.5,150.7 	"/>
	<polygon id="XMLID_242_" class="st2" points="265.9,126.2 262.1,124.1 264.5,128.6 	"/>
	<polygon id="XMLID_241_" class="st10" points="265.9,126.2 262.1,124.1 264.5,128.6 	"/>
	<polygon id="XMLID_240_" class="st2" points="287.1,90.7 285.4,86.7 285,86.8 	"/>
	<polygon id="XMLID_239_" class="st10" points="287.1,90.7 285.4,86.7 285,86.8 	"/>
	<polygon id="XMLID_238_" class="st2" points="290.2,108.6 271.5,100 276.1,99.4 258.2,89.4 260.9,95.6 247.6,97.4 259.2,118.7 
		293.5,110.6 293.6,110.5 	"/>
	<polygon id="XMLID_237_" class="st10" points="290.2,108.6 271.5,100 276.1,99.4 258.2,89.4 260.9,95.6 247.6,97.4 259.2,118.7 
		293.5,110.6 293.6,110.5 	"/>
	<polygon id="XMLID_236_" class="st2" points="260.9,70.8 250.9,72.1 256.3,84.9 263.8,72.3 	"/>
	<polygon id="XMLID_235_" class="st10" points="260.9,70.8 250.9,72.1 256.3,84.9 263.8,72.3 	"/>
	<polygon id="XMLID_234_" class="st2" points="189.7,99 187.1,97.6 188.8,100.6 	"/>
	<polygon id="XMLID_233_" class="st10" points="189.7,99 187.1,97.6 188.8,100.6 	"/>
	<polygon id="XMLID_232_" class="st2" points="243.7,98 219.9,101.2 230.4,120.5 	"/>
	<polygon id="XMLID_231_" class="st10" points="243.7,98 219.9,101.2 230.4,120.5 	"/>
	<polygon id="XMLID_230_" class="st2" points="273.1,130.2 271.1,129.1 271.8,130.4 	"/>
	<polygon id="XMLID_229_" class="st10" points="273.1,130.2 271.1,129.1 271.8,130.4 	"/>
	<polygon id="XMLID_228_" class="st2" points="251.4,133.2 241.8,127.8 244.4,134.1 	"/>
	<polygon id="XMLID_227_" class="st10" points="251.4,133.2 241.8,127.8 244.4,134.1 	"/>
	<polygon id="XMLID_226_" class="st2" points="200.8,105.2 200.5,105.3 210,130.5 222,137.1 237.7,135 241,127.4 231.2,121.9 
		231.4,122.2 	"/>
	<polygon id="XMLID_225_" class="st10" points="200.8,105.2 200.5,105.3 210,130.5 222,137.1 237.7,135 241,127.4 231.2,121.9 
		231.4,122.2 	"/>
	<polygon id="XMLID_224_" class="st2" points="207.8,78.8 209.1,79.6 209.9,77.7 207.4,78 	"/>
	<polygon id="XMLID_223_" class="st10" points="207.8,78.8 209.1,79.6 209.9,77.7 207.4,78 	"/>
	<polygon id="XMLID_222_" class="st3" points="147.2,26.7 146.4,26.8 150.7,34.4 151,33.8 	"/>
	<polygon id="XMLID_221_" class="st10" points="147.2,26.7 146.4,26.8 150.7,34.4 151,33.8 	"/>
	<polygon id="XMLID_220_" class="st5" points="263.1,139.7 259.3,137.6 257.2,141.1 	"/>
	<polygon id="XMLID_219_" class="st10" points="263.1,139.7 259.3,137.6 257.2,141.1 	"/>
	<polygon id="XMLID_218_" class="st5" points="251.5,150.7 255.5,160.1 267,165.1 271.2,157.3 267.3,155.1 253.5,147.4 	"/>
	<polygon id="XMLID_217_" class="st10" points="251.5,150.7 255.5,160.1 267,165.1 271.2,157.3 267.3,155.1 253.5,147.4 	"/>
	<polygon id="XMLID_216_" class="st5" points="269.7,138.2 275.3,136.9 271.8,130.4 271.1,129.1 265.9,126.2 264.5,128.6 	"/>
	<polygon id="XMLID_215_" class="st10" points="269.7,138.2 275.3,136.9 271.8,130.4 271.1,129.1 265.9,126.2 264.5,128.6 	"/>
	<polygon id="XMLID_214_" class="st7" points="300.5,96 300.5,91.8 298.3,90.6 294.6,96.8 	"/>
	<polygon id="XMLID_213_" class="st10" points="300.5,96 300.5,91.8 298.3,90.6 294.6,96.8 	"/>
	<polygon id="XMLID_212_" class="st7" points="293.6,110.5 293.7,110.2 290.2,108.6 	"/>
	<polygon id="XMLID_211_" class="st10" points="293.6,110.5 293.7,110.2 290.2,108.6 	"/>
	<polygon id="XMLID_210_" class="st9" points="183.5,201.4 188.8,211.2 198.5,209.6 202.8,200.8 178,187 	"/>
	<polygon id="XMLID_209_" class="st9" points="180.4,157.4 167.9,160.3 172.1,171.4 	"/>
	<polygon id="XMLID_208_" class="st9" points="129.8,172.6 146.5,138.4 129.3,128.8 120.4,152 	"/>
	<polygon id="XMLID_207_" class="st9" points="298.9,179.1 298,178.7 298.3,179.2 	"/>
	<polygon id="XMLID_206_" class="st9" points="213.9,149.5 223.8,167.8 225.4,164 216.7,148.9 	"/>
	<polygon id="XMLID_205_" class="st9" points="218.4,180.4 219.1,178.8 216.9,177.6 	"/>
	<polygon id="XMLID_204_" class="st9" points="234.1,203.9 232.4,200.7 229.6,201.1 231.4,204.3 	"/>
	<polygon id="XMLID_203_" class="st9" points="250.9,201.2 251.5,201.1 253.4,197.8 249,198.4 248.3,199.7 	"/>
	<polygon id="XMLID_202_" class="st9" points="211.1,207.6 214.2,207.1 210.1,204.8 	"/>
	<polygon id="XMLID_201_" class="st3" points="146.4,112.4 151.3,121.4 161.5,119 	"/>
	<polygon id="XMLID_200_" class="st9" points="146.4,112.4 151.3,121.4 161.5,119 	"/>
	<polygon id="XMLID_199_" class="st3" points="203,152.1 216.9,177.6 219.1,178.8 223.8,167.8 213.9,149.5 	"/>
	<polygon id="XMLID_198_" class="st9" points="203,152.1 216.9,177.6 219.1,178.8 223.8,167.8 213.9,149.5 	"/>
	<polygon id="XMLID_197_" class="st5" points="298.4,193.5 300.5,193.2 300.5,189.1 294.1,185.6 	"/>
	<polygon id="XMLID_196_" class="st9" points="298.4,193.5 300.5,193.2 300.5,189.1 294.1,185.6 	"/>
	<polygon id="XMLID_195_" class="st5" points="257.3,197.3 258.7,199.9 280.6,196.4 267.9,189.3 270.6,195.5 	"/>
	<polygon id="XMLID_194_" class="st9" points="257.3,197.3 258.7,199.9 280.6,196.4 267.9,189.3 270.6,195.5 	"/>
	<polygon id="XMLID_193_" class="st5" points="291.5,180.8 298.3,179.2 298,178.7 288,174.3 	"/>
	<polygon id="XMLID_192_" class="st9" points="291.5,180.8 298.3,179.2 298,178.7 288,174.3 	"/>
	<polygon id="XMLID_191_" class="st5" points="261.8,174.8 266,184.8 275.4,168.8 267,165.1 	"/>
	<polygon id="XMLID_190_" class="st9" points="261.8,174.8 266,184.8 275.4,168.8 267,165.1 	"/>
	<polygon id="XMLID_189_" class="st6" points="291.5,180.8 294.1,185.6 300.5,189.1 300.5,179.8 298.9,179.1 298.3,179.2 	"/>
	<polygon id="XMLID_188_" class="st9" points="291.5,180.8 294.1,185.6 300.5,189.1 300.5,179.8 298.9,179.1 298.3,179.2 	"/>
	<polygon id="XMLID_187_" class="st3" points="178,187 174.6,185.1 183.5,201.4 	"/>
	<polygon id="XMLID_186_" class="st9" points="178,187 174.6,185.1 183.5,201.4 	"/>
	<polygon id="XMLID_185_" class="st3" points="140.3,193.3 158.4,162.6 141.4,166.6 155.5,142.6 129.6,128.1 129.3,128.8 
		146.5,138.4 129.8,172.6 144,203.6 168.7,214.5 176.1,213.3 	"/>
	<polygon id="XMLID_184_" class="st9" points="140.3,193.3 158.4,162.6 141.4,166.6 155.5,142.6 129.6,128.1 129.3,128.8 
		146.5,138.4 129.8,172.6 144,203.6 168.7,214.5 176.1,213.3 	"/>
	<polygon id="XMLID_183_" class="st3" points="172.1,171.4 167.9,160.3 162,161.7 169.6,175.8 	"/>
	<polygon id="XMLID_182_" class="st9" points="172.1,171.4 167.9,160.3 162,161.7 169.6,175.8 	"/>
	<polygon id="XMLID_181_" class="st3" points="159.3,136.2 162.2,131.3 154.2,126.8 	"/>
	<polygon id="XMLID_180_" class="st9" points="159.3,136.2 162.2,131.3 154.2,126.8 	"/>
	<polygon id="XMLID_179_" class="st10" points="249,198.4 246.6,198.8 248.3,199.7 	"/>
	<polygon id="XMLID_178_" class="st9" points="249,198.4 246.6,198.8 248.3,199.7 	"/>
	<polygon id="XMLID_177_" class="st10" points="216.7,148.9 225.4,164 231.5,149.6 225.2,146.9 	"/>
	<polygon id="XMLID_176_" class="st9" points="216.7,148.9 225.4,164 231.5,149.6 225.2,146.9 	"/>
	<polygon id="XMLID_175_" class="st5" points="267,165.1 255.5,160.1 261.8,174.8 	"/>
	<polygon id="XMLID_174_" class="st10" points="267,165.1 255.5,160.1 261.8,174.8 	"/>
	<polygon id="XMLID_173_" class="st9" points="267,165.1 255.5,160.1 261.8,174.8 	"/>
	<polygon id="XMLID_172_" class="st11" points="23.8,69.4 24.3,68.5 19.6,69.2 25.7,82.4 34.9,66.8 	"/>
	<polygon id="XMLID_171_" class="st11" points="60.8,63.6 61.4,62.5 60.2,62.7 	"/>
	<polygon id="XMLID_170_" class="st11" points="83.9,106.3 85,104.1 81.7,102.3 	"/>
	<polygon id="XMLID_169_" class="st11" points="106.9,187.4 109.4,180.7 57.3,151.6 91.7,226.9 104.2,194.2 99.7,184.3 	"/>
	<polygon id="XMLID_168_" class="st11" points="103.1,114.2 92.7,108.4 103.9,137.9 101.2,138.1 115.6,164.6 120.4,152 	"/>
	<polygon id="XMLID_167_" class="st3" points="92.4,107.7 92.7,108.4 103.1,114.2 102.8,113.4 	"/>
	<polygon id="XMLID_166_" class="st11" points="92.4,107.7 92.7,108.4 103.1,114.2 102.8,113.4 	"/>
	<polygon id="XMLID_165_" class="st3" points="132.8,50.9 136.2,59 141.8,49.5 	"/>
	<polygon id="XMLID_164_" class="st11" points="132.8,50.9 136.2,59 141.8,49.5 	"/>
	<polygon id="XMLID_163_" class="st3" points="81.7,102.3 85,104.1 85.2,103.6 81.3,101.4 	"/>
	<polygon id="XMLID_162_" class="st11" points="81.7,102.3 85,104.1 85.2,103.6 81.3,101.4 	"/>
	<polygon id="XMLID_161_" class="st3" points="135.8,100.7 123.4,102.4 132.5,106.3 	"/>
	<polygon id="XMLID_160_" class="st11" points="135.8,100.7 123.4,102.4 132.5,106.3 	"/>
	<polygon id="XMLID_159_" class="st3" points="100.8,83.3 113.2,54.1 87.3,58.3 	"/>
	<polygon id="XMLID_158_" class="st11" points="100.8,83.3 113.2,54.1 87.3,58.3 	"/>
	<polygon id="XMLID_157_" class="st3" points="138.8,65 142,72.7 147.8,62.9 	"/>
	<polygon id="XMLID_156_" class="st11" points="138.8,65 142,72.7 147.8,62.9 	"/>
	<polygon id="XMLID_155_" class="st3" points="139.7,100.2 140,100.8 140.3,100.1 	"/>
	<polygon id="XMLID_154_" class="st11" points="139.7,100.2 140,100.8 140.3,100.1 	"/>
	<polygon id="XMLID_153_" class="st8" points="60.2,62.7 44.7,65.2 52,78.6 60.8,63.6 	"/>
	<polygon id="XMLID_152_" class="st11" points="60.2,62.7 44.7,65.2 52,78.6 60.8,63.6 	"/>
	<polygon id="XMLID_151_" class="st8" points="115.6,164.6 101.2,138.1 66.7,141.5 74.7,125.2 35.1,103.1 57.3,151.6 109.4,180.7 	
		"/>
	<polygon id="XMLID_150_" class="st11" points="115.6,164.6 101.2,138.1 66.7,141.5 74.7,125.2 35.1,103.1 57.3,151.6 109.4,180.7 	
		"/>
	<polygon id="XMLID_149_" class="st8" points="40.5,65.9 35.2,66.7 34.9,66.8 25.7,82.4 27.9,87.3 	"/>
	<polygon id="XMLID_148_" class="st11" points="40.5,65.9 35.2,66.7 34.9,66.8 25.7,82.4 27.9,87.3 	"/>
	<polygon id="XMLID_147_" class="st8" points="81.3,101.4 57,87.9 75.9,122.7 83.9,106.3 81.7,102.3 	"/>
	<polygon id="XMLID_146_" class="st11" points="81.3,101.4 57,87.9 75.9,122.7 83.9,106.3 81.7,102.3 	"/>
	<line id="XMLID_145_" class="st12" x1="24.3" y1="68.5" x2="19.6" y2="69.2"/>
	<line id="XMLID_144_" class="st13" x1="24.3" y1="68.5" x2="19.6" y2="69.2"/>
	<line id="XMLID_143_" class="st12" x1="24.3" y1="68.5" x2="19.6" y2="69.2"/>
	<line id="XMLID_142_" class="st13" x1="24.3" y1="68.5" x2="19.6" y2="69.2"/>
	<polygon id="XMLID_141_" class="st9" points="60.2,62.7 61.4,62.5 60.2,62.7 	"/>
	<polygon id="XMLID_140_" class="st11" points="60.2,62.7 61.4,62.5 60.2,62.7 	"/>
	<polygon id="XMLID_139_" class="st8" points="35.2,66.7 40.5,65.9 40.5,65.9 	"/>
	<polygon id="XMLID_138_" class="st9" points="35.2,66.7 40.5,65.9 40.5,65.9 	"/>
	<polygon id="XMLID_137_" class="st11" points="35.2,66.7 40.5,65.9 40.5,65.9 	"/>
	<polygon id="XMLID_136_" class="st8" points="60.2,62.7 44.7,65.2 60.2,62.7 	"/>
	<polygon id="XMLID_135_" class="st9" points="60.2,62.7 44.7,65.2 60.2,62.7 	"/>
	<polygon id="XMLID_134_" class="st11" points="60.2,62.7 44.7,65.2 60.2,62.7 	"/>
	<polygon id="XMLID_133_" class="st9" points="120.4,152 129.3,128.8 103.1,114.2 	"/>
	<polygon id="XMLID_132_" class="st11" points="120.4,152 129.3,128.8 103.1,114.2 	"/>
	<polygon id="XMLID_131_" class="st3" points="132.5,106.3 123.4,102.4 112,103.9 122.5,123.2 	"/>
	<polygon id="XMLID_130_" class="st9" points="132.5,106.3 123.4,102.4 112,103.9 122.5,123.2 	"/>
	<polygon id="XMLID_129_" class="st11" points="132.5,106.3 123.4,102.4 112,103.9 122.5,123.2 	"/>
	<polygon id="XMLID_128_" class="st3" points="123.5,125 102.8,113.4 103.1,114.2 129.3,128.8 129.6,128.1 123.3,124.6 	"/>
	<polygon id="XMLID_127_" class="st9" points="123.5,125 102.8,113.4 103.1,114.2 129.3,128.8 129.6,128.1 123.3,124.6 	"/>
	<polygon id="XMLID_126_" class="st11" points="123.5,125 102.8,113.4 103.1,114.2 129.3,128.8 129.6,128.1 123.3,124.6 	"/>
	<polygon id="XMLID_125_" class="st14" points="270.6,21.5 263.1,34.2 283.8,82.9 289.6,86 300.5,84.3 300.5,34.6 285.7,28.2 
		263.6,33.3 	"/>
	<polygon id="XMLID_124_" class="st2" points="270.7,60.5 282.5,82.2 283.8,82.9 263.1,34.2 259.9,39.6 270,61.6 	"/>
	<polygon id="XMLID_123_" class="st14" points="270.7,60.5 282.5,82.2 283.8,82.9 263.1,34.2 259.9,39.6 270,61.6 	"/>
	<polygon id="XMLID_122_" class="st10" points="285.4,86.7 289.6,86 283.8,82.9 	"/>
	<polygon id="XMLID_121_" class="st14" points="285.4,86.7 289.6,86 283.8,82.9 	"/>
	<polygon id="XMLID_120_" class="st2" points="285,86.8 285.4,86.7 283.8,82.9 282.5,82.2 	"/>
	<polygon id="XMLID_119_" class="st10" points="285,86.8 285.4,86.7 283.8,82.9 282.5,82.2 	"/>
	<polygon id="XMLID_118_" class="st14" points="285,86.8 285.4,86.7 283.8,82.9 282.5,82.2 	"/>
	<polygon id="XMLID_117_" class="st15" points="106.9,187.4 104.2,194.2 111.5,210.1 119.8,193.1 	"/>
	<polygon id="XMLID_116_" class="st15" points="184.3,238.6 191.3,224.3 177.4,218.2 117.9,224 143.8,280.9 161.5,278 184.7,238.6 	
		"/>
	<polygon id="XMLID_115_" class="st15" points="262.6,261.7 264.4,261.4 260.9,254.8 259.4,254.1 	"/>
	<polygon id="XMLID_114_" class="st15" points="209.9,236.2 214.6,244.8 248.8,263.9 249,263.9 254.1,251.8 216.8,235.5 	"/>
	<polygon id="XMLID_113_" class="st3" points="168.7,214.5 150.3,217.4 144,203.6 119.8,193.1 111.5,210.1 117.9,224 177.4,218.2 	
		"/>
	<polygon id="XMLID_112_" class="st15" points="168.7,214.5 150.3,217.4 144,203.6 119.8,193.1 111.5,210.1 117.9,224 177.4,218.2 	
		"/>
	<polygon id="XMLID_111_" class="st3" points="150.3,217.4 168.7,214.5 144,203.6 	"/>
	<polygon id="XMLID_110_" class="st9" points="150.3,217.4 168.7,214.5 144,203.6 	"/>
	<polygon id="XMLID_109_" class="st15" points="150.3,217.4 168.7,214.5 144,203.6 	"/>
	<polygon id="XMLID_108_" class="st11" points="99.7,184.3 104.2,194.2 106.9,187.4 	"/>
	<polygon id="XMLID_107_" class="st15" points="99.7,184.3 104.2,194.2 106.9,187.4 	"/>
	<polygon id="XMLID_106_" class="st9" points="271.8,224 283.5,245.6 244.6,223.9 260.9,254.8 272.9,260 264.4,261.4 284.4,299.3 
		295.4,280.5 298.6,286.5 300.5,283.5 300.5,238.8 300,239.7 	"/>
	<polygon id="XMLID_105_" class="st9" points="234.1,203.9 241.5,218 251.3,201.4 250.9,201.2 	"/>
	<polygon id="XMLID_104_" class="st9" points="268.9,218.6 277.7,216.5 263.3,208.3 	"/>
	<polygon id="XMLID_103_" class="st9" points="250.9,201.2 248.3,199.7 247.2,201.8 245.5,198.9 232.4,200.7 234.1,203.9 	"/>
	<polygon id="XMLID_102_" class="st9" points="250.9,201.2 248.3,199.7 247.2,201.8 245.5,198.9 232.4,200.7 234.1,203.9 	"/>
	<polygon id="XMLID_101_" class="st10" points="248.3,199.7 246.6,198.8 245.5,198.9 247.2,201.8 	"/>
	<polygon id="XMLID_100_" class="st9" points="248.3,199.7 246.6,198.8 245.5,198.9 247.2,201.8 	"/>
	<polygon id="XMLID_99_" class="st9" points="248.3,199.7 246.6,198.8 245.5,198.9 247.2,201.8 	"/>
	<polygon id="XMLID_98_" class="st15" points="272.9,260 260.9,254.8 264.4,261.4 	"/>
	<polygon id="XMLID_97_" class="st9" points="272.9,260 260.9,254.8 264.4,261.4 	"/>
	<polygon id="XMLID_96_" class="st3" points="82,27.5 67,-0.1 64.7,-0.1 56.7,13.4 	"/>
	<polygon id="XMLID_95_" class="st2" points="117.6,47.4 115.9,47.8 113.2,54.1 100.8,83.3 112,103.9 123.4,102.4 135.8,100.7 
		137.7,97.4 130.6,93.4 138.7,79.7 137.8,79.9 142,72.7 138.8,65 131.7,66.7 136.2,59 132.8,50.9 124.6,31.7 123.7,29.4 122.5,32.2 
		116.4,46.7 	"/>
	<polygon id="XMLID_94_" class="st2" points="142.1,99.8 138.5,97.8 139.7,100.2 140.3,100.1 	"/>
	<polygon id="XMLID_93_" class="st3" points="123.5,125 123.3,124.6 122.1,124 122.5,123.2 112,103.9 100.8,83.3 87.3,58.3 
		85.4,54.9 62.8,60.2 61.4,62.5 60.8,63.6 52,78.6 57,87.9 81.3,101.4 85.2,103.6 88.4,97 92.4,107.7 102.8,113.4 	"/>
	<polygon id="XMLID_92_" class="st4" points="42.9,61.9 44.3,64.6 59.4,61 62.8,60.2 85.4,54.9 115.9,47.8 117.6,47.4 116.4,46.7 
		99.9,37.5 56.7,13.4 39.5,42.8 33.4,53.1 24.3,68.5 23.8,69.4 34.9,66.8 35.2,66.7 40.8,65.4 	"/>
	<polygon id="XMLID_91_" class="st5" points="154.2,126.8 146.5,122.5 151.3,121.4 146.4,112.4 140,100.8 139.7,100.2 138.5,97.8 
		137.7,97.4 135.8,100.7 132.5,106.3 122.5,123.2 122.1,124 123.3,124.6 129.6,128.1 155.5,142.6 159.3,136.2 	"/>
	<polygon id="XMLID_90_" class="st6" points="151.3,121.4 146.5,122.5 154.2,126.8 162.2,131.3 170.6,116.9 161.5,119 	"/>
	<polygon id="XMLID_89_" class="st7" points="159.9,75.9 160.7,74.5 159.3,74.8 	"/>
	<polygon id="XMLID_88_" class="st7" points="181.7,98 179,93 177.1,92 181,99.2 	"/>
	<polygon id="XMLID_87_" class="st8" points="57,87.9 52,78.6 44.7,65.2 44.3,64.6 42.9,61.9 40.8,65.4 40.5,65.9 40.5,65.9 
		40.5,65.9 27.9,87.3 22.7,96.2 35.1,103.1 74.7,125.2 75.9,122.7 	"/>
	<polygon id="XMLID_86_" class="st3" points="92.7,108.4 92.4,107.7 88.4,97 85.2,103.6 85,104.1 83.9,106.3 75.9,122.7 74.7,125.2 
		66.7,141.5 101.2,138.1 103.9,137.9 	"/>
	<polygon id="XMLID_85_" class="st3" points="185.6,116.3 180.2,113.3 180.6,114.1 185.4,116.7 	"/>
	<polygon id="XMLID_84_" class="st3" points="181,99.2 185.2,106.8 187.6,102.6 183.9,95.8 183.3,95.4 181.7,98 	"/>
	<polygon id="XMLID_83_" class="st3" points="186.2,108.7 187.8,111.7 189.7,107.8 	"/>
	<polygon id="XMLID_82_" class="st2" points="255.5,160.1 251.5,150.7 249.1,145 246.6,143.6 248.3,143.2 244.4,134.1 241.8,127.8 
		241,127.4 237.7,135 234,143.8 235.2,144.5 233.5,144.9 231.5,149.6 225.4,164 223.8,167.8 219.1,178.8 218.4,180.4 229.6,201.1 
		232.4,200.7 245.5,198.9 246.6,198.8 249,198.4 253.4,197.8 255.6,194.1 257.3,197.3 270.6,195.5 267.9,189.3 264.5,187.4 
		266,184.8 261.8,174.8 	"/>
	<polygon id="XMLID_81_" class="st3" points="203,152.1 180.4,157.4 172.1,171.4 169.6,175.8 174.6,185.1 178,187 202.8,200.8 
		206,194.2 210.1,204.8 214.2,207.1 241.1,222.1 240.9,221.8 239.7,221.1 240.1,220.4 231.4,204.3 229.6,201.1 218.4,180.4 
		216.9,177.6 	"/>
	<polygon id="XMLID_80_" class="st4" points="210,130.5 211.8,135.1 174.6,138.8 182.6,122.4 171.1,116 170.6,116.9 162.2,131.3 
		159.3,136.2 155.5,142.6 141.4,166.6 158.4,162.6 160.5,159 162,161.7 167.9,160.3 180.4,157.4 203,152.1 213.9,149.5 216.7,148.9 
		225.2,146.9 233.5,144.9 235.2,144.5 234,143.8 222,137.1 	"/>
	<polygon id="XMLID_79_" class="st4" points="180.6,114.1 183.8,120 185.4,116.7 	"/>
	<polygon id="XMLID_78_" class="st5" points="255.6,194.1 253.4,197.8 251.5,201.1 251.3,201.4 241.5,218 240.1,220.4 239.7,221.1 
		240.9,221.8 244.6,223.9 283.5,245.6 271.8,224 264.1,219.7 268.9,218.6 263.3,208.3 259.1,200.7 258.7,199.9 257.3,197.3 	"/>
	<polygon id="XMLID_77_" class="st6" points="277.7,216.5 268.9,218.6 264.1,219.7 271.8,224 300,239.7 300.5,238.8 300.5,211.1 
		284.6,214.9 	"/>
	<polygon id="XMLID_76_" class="st7" points="294.1,185.6 291.5,180.8 288,174.3 282,163.3 279.5,161.9 275.4,168.8 266,184.8 
		264.5,187.4 267.9,189.3 280.6,196.4 300.5,207.4 300.5,197.4 298.4,193.5 	"/>
	<polygon id="XMLID_75_" class="st8" points="183.5,201.4 174.6,185.1 169.6,175.8 162,161.7 160.5,159 158.4,162.6 140.3,193.3 
		176.1,213.3 183.8,217.6 192.3,222.3 193.5,219.8 188.8,211.2 	"/>
	<polygon id="XMLID_74_" class="st3" points="209.9,236.2 216.8,235.5 221.5,235 211.1,207.6 210.1,204.8 206,194.2 202.8,200.8 
		198.5,209.6 193.5,219.8 192.3,222.3 191.3,224.3 184.3,238.6 184.7,238.6 189.3,230.7 198.5,215.1 	"/>
	<polygon id="XMLID_73_" class="st3" points="257.2,141.1 248.3,143.2 246.6,143.6 249.1,145 253.5,147.4 267.3,155.1 273.1,145.3 
		263.1,139.7 	"/>
	<polygon id="XMLID_72_" class="st3" points="269.7,138.2 273.4,144.8 278.5,136.1 275.3,136.9 	"/>
	<polygon id="XMLID_71_" class="st2" points="290.7,97.4 297.4,109.7 300.5,109 300.5,96 294.6,96.8 	"/>
	<polygon id="XMLID_70_" class="st2" points="290.2,108.6 293.7,110.2 294.2,109.4 276.1,99.4 271.5,100 	"/>
	<polygon id="XMLID_69_" class="st2" points="294.8,110.3 295.5,110.2 294.4,109.6 	"/>
	<polygon id="XMLID_68_" class="st4" points="279.8,134 278.5,136.1 273.4,144.8 273.8,145.7 273.1,145.3 267.3,155.1 271.2,157.3 
		279.5,161.9 282,163.3 293,169.4 300.5,173.6 300.5,122.4 290.3,139.8 	"/>
	<polygon id="XMLID_67_" class="st4" points="294.2,109.4 293.7,110.2 293.6,110.5 293.5,110.6 294.8,110.3 294.4,109.6 	"/>
	<polygon id="XMLID_66_" class="st3" points="263.6,33.3 285.7,28.2 295.5,25.8 274.8,14.3 270.6,21.5 	"/>
	<polygon id="XMLID_65_" class="st2" points="250.9,72.1 260.9,70.8 265,70.2 266.5,67.6 248.4,59.2 247.9,60.2 247,58.5 
		244.6,57.4 	"/>
	<polygon id="XMLID_64_" class="st2" points="193.3,52.2 207.4,78 209.9,77.7 222.8,47.4 219.8,46 	"/>
	<polygon id="XMLID_63_" class="st3" points="189.9,24.8 209.1,35.5 229.9,30.6 230.7,28.6 220.1,9.1 203.6,-0.1 184.5,-0.1 
		180.3,7.1 	"/>
	<polygon id="XMLID_62_" class="st4" points="218.6,6.3 219.7,8.3 220.1,9.1 230.7,28.6 231.6,26.7 238.3,42.5 247,58.5 247.9,60.2 
		248.4,59.2 259.9,39.6 263.1,34.2 270.6,21.5 274.8,14.3 248.9,-0.1 215.1,-0.1 	"/>
	<polygon id="XMLID_61_" class="st5" points="147.8,62.9 142,72.7 137.8,79.9 138.7,79.7 148.7,62.7 	"/>
	<polygon id="XMLID_60_" class="st5" points="160.7,74.5 170.7,57.5 152.2,61.8 159.3,74.8 	"/>
	<polygon id="XMLID_59_" class="st6" points="185.6,116.3 187.8,111.7 186.2,108.7 183.8,109.2 185.2,106.8 181,99.2 177.1,92 
		164.9,85.2 180.2,113.3 	"/>
	<polygon id="XMLID_58_" class="st7" points="188,102 187.6,102.6 185.2,106.8 183.8,109.2 186.2,108.7 189.7,107.8 193.1,100.9 
		189.7,99 188.8,100.6 	"/>
	<polygon id="XMLID_57_" class="st7" points="208.7,80.5 209.1,79.6 207.8,78.8 	"/>
	<polygon id="XMLID_56_" class="st7" points="200.8,105.2 200.3,104.9 200.5,105.3 	"/>
	<polygon id="XMLID_55_" class="st8" points="170,1.5 171,-0.1 163.6,-0.1 161.5,3.5 	"/>
	<polygon id="XMLID_54_" class="st8" points="177.2,-0.1 176.4,-0.1 176.5,0 	"/>
	<polygon id="XMLID_53_" class="st3" points="138,1.4 134.8,-0.1 134.6,-0.1 135.8,2 	"/>
	<polygon id="XMLID_52_" class="st3" points="147.2,26.7 155.7,25.9 162.8,13.8 157.1,11 154.8,14.9 137.6,5.3 144.7,18.5 
		129.8,10.1 136.5,27.8 144.8,27 146.4,26.8 	"/>
	<polygon id="XMLID_51_" class="st3" points="164.6,10.7 189.9,24.8 180.3,7.1 176.5,0 176.4,-0.1 171,-0.1 170,1.5 	"/>
	<polygon id="XMLID_50_" class="st2" points="224.3,43.9 225.5,44.6 223.8,45.1 222.8,47.4 209.9,77.7 209.1,79.6 208.7,80.5 
		219.9,101.2 243.7,98 245.9,94.2 247.6,97.4 260.9,95.6 258.2,89.4 254.8,87.5 256.3,84.9 250.9,72.1 244.6,57.4 238.3,42.5 
		231.6,26.7 230.7,28.6 229.9,30.6 	"/>
	<polygon id="XMLID_49_" class="st3" points="207.4,78 193.3,52.2 170.7,57.5 160.7,74.5 159.9,75.9 164.9,85.2 177.1,92 179,93 
		183.3,95.4 183.9,95.8 185,96.4 187.1,97.6 189.7,99 193.1,100.9 196.3,94.3 200.3,104.9 200.8,105.2 231.4,122.2 231.2,121.9 
		230,121.2 230.4,120.5 219.9,101.2 208.7,80.5 207.8,78.8 	"/>
	<polygon id="XMLID_48_" class="st4" points="155.7,25.9 151,33.8 150.7,34.4 141.8,49.5 136.2,59 131.7,66.7 138.8,65 147.8,62.9 
		148.7,62.7 150.8,59.1 152.2,61.8 170.7,57.5 193.3,52.2 219.8,46 223.8,45.1 225.5,44.6 224.3,43.9 209.1,35.5 189.9,24.8 
		164.6,10.7 162.8,13.8 	"/>
	<polygon id="XMLID_47_" class="st5" points="245.9,94.2 243.7,98 230.4,120.5 230,121.2 231.2,121.9 241,127.4 241.8,127.8 
		251.4,133.2 259.3,137.6 263.1,139.7 273.1,145.3 273.8,145.7 273.4,144.8 269.7,138.2 264.5,128.6 262.1,124.1 254.4,119.8 
		259.2,118.7 247.6,97.4 	"/>
	<polygon id="XMLID_46_" class="st6" points="298.6,111.9 295.5,110.2 294.8,110.3 293.5,110.6 259.2,118.7 254.4,119.8 
		262.1,124.1 265.9,126.2 271.1,129.1 273.1,130.2 279.8,134 290.3,139.8 300.5,122.4 300.5,109 297.4,109.7 	"/>
	<polygon id="XMLID_45_" class="st7" points="282.5,82.2 270.7,60.5 270,61.6 266.5,67.6 265,70.2 263.8,72.3 256.3,84.9 
		254.8,87.5 258.2,89.4 276.1,99.4 294.2,109.4 294.4,109.6 295.5,110.2 298.6,111.9 297.4,109.7 290.7,97.4 287.1,90.7 285,86.8 	
		"/>
	<polygon id="XMLID_44_" class="st8" points="142.1,99.8 171.1,116 182.6,122.4 183.8,120 180.6,114.1 180.2,113.3 164.9,85.2 
		159.9,75.9 159.3,74.8 152.2,61.8 150.8,59.1 148.7,62.7 138.7,79.7 130.6,93.4 137.7,97.4 138.5,97.8 	"/>
	<polygon id="XMLID_43_" class="st3" points="187.8,111.7 185.6,116.3 185.4,116.7 183.8,120 182.6,122.4 174.6,138.8 211.8,135.1 
		210,130.5 200.5,105.3 200.3,104.9 196.3,94.3 193.1,100.9 189.7,107.8 	"/>
	<polygon id="XMLID_42_" class="st3" points="118.7,3.9 117.9,3.5 118.2,3.1 116.4,-0.1 111.1,-0.1 118.8,4.1 	"/>
	<polygon id="XMLID_41_" class="st5" points="117.9,3.5 118.7,3.9 129.8,10.1 144.7,18.5 137.6,5.3 132.9,2.6 135.8,2 134.6,-0.1 
		120.1,-0.1 118.2,3.1 	"/>
	<polygon id="XMLID_40_" class="st6" points="135.8,2 132.9,2.6 137.6,5.3 154.8,14.9 157.1,11 161.5,3.5 163.6,-0.1 144.7,-0.1 
		138,1.4 	"/>
	<polygon id="XMLID_39_" class="st8" points="89.7,2.7 88.1,-0.1 81.1,-0.1 88.9,4.2 	"/>
	<polygon id="XMLID_38_" class="st3" points="88.9,4.2 84.1,14.2 106.8,12 102.2,-0.1 91.1,-0.1 89.7,2.7 	"/>
	<polygon id="XMLID_37_" class="st3" points="198.5,215.1 189.3,230.7 214.6,244.8 209.9,236.2 	"/>
	<polygon id="XMLID_36_" class="st2" points="281,305 262.6,261.7 259.4,254.1 256.3,246.8 254.1,251.8 249,263.9 249,264 
		250.2,264.7 248.5,265.1 233.4,300.6 244.6,321.2 268.4,318 270.6,314.3 272.3,317.5 285.6,315.7 282.9,309.4 279.5,307.5 	"/>
	<polygon id="XMLID_35_" class="st3" points="255.1,340.5 244.6,321.2 233.4,300.6 218,272.2 195.3,277.6 184.6,295.9 189.6,305.2 
		217.8,320.9 221,314.4 225,325 256.1,342.3 255.9,341.9 254.7,341.3 	"/>
	<polygon id="XMLID_34_" class="st4" points="176.9,281.9 195.3,277.6 218,272.2 248.5,265.1 250.2,264.7 249,264 248.8,263.9 
		214.6,244.8 189.3,230.7 184.7,238.6 161.5,278 156.4,286.7 173.4,282.7 175.5,279.2 	"/>
	<polygon id="XMLID_33_" class="st5" points="268.4,318 255.1,340.5 254.7,341.3 255.9,341.9 298.5,365.7 286.8,344.1 279.1,339.8 
		283.9,338.7 272.3,317.5 270.6,314.3 	"/>
	<polygon id="XMLID_32_" class="st6" points="286.8,344.1 300.5,351.8 300.5,334.8 283.9,338.7 279.1,339.8 	"/>
	<polygon id="XMLID_31_" class="st7" points="284.4,299.3 281,305 279.5,307.5 282.9,309.4 300.5,319.2 300.5,289.9 298.6,286.5 
		295.4,280.5 	"/>
	<polygon id="XMLID_30_" class="st8" points="198.7,321.9 189.6,305.2 184.6,295.9 176.9,281.9 175.5,279.2 173.4,282.7 
		155.3,313.5 191.7,333.8 194.7,328.6 	"/>
	<polygon id="XMLID_29_" class="st3" points="213.1,355.7 229,351.6 230,349.1 211.9,353.4 	"/>
	<polygon id="XMLID_28_" class="st3" points="217.8,320.9 209.9,337.1 230.3,348.5 232.2,344 225,325 221,314.4 	"/>
	<polygon id="XMLID_27_" class="st3" points="222.2,525.6 234.4,504.8 210,491.3 	"/>
	<polygon id="XMLID_26_" class="st2" points="177.7,471.4 199.4,425.1 190.9,401.2 165.4,408.9 162.5,413.8 161.2,410.1 
		146.9,414.4 148.7,421.8 152,423.6 150,427 166.5,495.3 177,472.9 175.8,472.2 	"/>
	<polygon id="XMLID_25_" class="st3" points="222.9,402.9 215.9,403.6 214.7,406 214.2,403.8 200.7,405.1 205.5,395.3 184.8,383.8 
		190.9,401.2 199.4,425.1 210.9,457.8 235.7,447.7 250,423.3 246.2,412.5 221.2,398.5 	"/>
	<polygon id="XMLID_24_" class="st3" points="203.3,388.5 206.2,393.9 207.6,390.9 	"/>
	<polygon id="XMLID_23_" class="st4" points="255.8,439.5 235.7,447.7 210.9,457.8 177.7,471.4 175.8,472.2 177,472.9 234.4,504.8 
		278.2,430.3 259.6,437.9 256.9,442.6 	"/>
	<polygon id="XMLID_22_" class="st5" points="152.5,385.6 161.2,410.1 162.5,413.8 165.4,408.9 181.3,381.9 174.4,378 176.8,374 
		141.5,354.4 150.3,379.3 157.7,383.4 	"/>
	<polygon id="XMLID_21_" class="st6" points="112.9,401.8 152.5,385.6 157.7,383.4 150.3,379.3 123.2,364.2 97.4,408.1 110.7,402.7 
		109.8,400.1 	"/>
	<polygon id="XMLID_20_" class="st7" points="148.7,421.8 112.9,401.8 109.8,400.1 110.7,402.7 130.8,459.6 150,427 152,423.6 	"/>
	<polygon id="XMLID_19_" class="st8" points="252.9,396.3 259.9,409.2 241.4,398.9 246.2,412.5 250,423.3 255.8,439.5 256.9,442.6 
		259.6,437.9 283.7,396.9 277.1,393.2 269.7,405.7 	"/>
	<polygon id="XMLID_18_" class="st8" points="269.3,388.8 252.2,379.3 252.2,379.3 244.3,380.4 251.2,393.1 	"/>
	<polygon id="XMLID_17_" class="st8" points="241.9,380.7 235.3,381.6 237.6,388.1 	"/>
	<polygon id="XMLID_16_" class="st3" points="211.7,382.5 209.8,381.4 210.5,385 	"/>
	<polygon id="XMLID_15_" class="st3" points="244.8,347.6 239.3,349 241.4,354.1 	"/>
	<polygon id="XMLID_14_" class="st3" points="223.4,389 216.1,384.9 220.1,395.5 	"/>
	<polygon id="XMLID_13_" class="st3" points="221.1,370.3 229,351.6 213.1,355.7 	"/>
	<polygon id="XMLID_12_" class="st3" points="214.7,406 215.9,403.6 214.2,403.8 	"/>
	<polygon id="XMLID_11_" class="st3" points="200.2,319.3 198.7,321.9 194.7,328.6 205.6,334.7 209.8,337 	"/>
	<polygon id="XMLID_10_" class="st2" points="231.1,348.9 230,349.1 229,351.6 221.1,370.3 227.7,382.6 235.3,381.6 241.9,380.7 
		243.2,378.5 244.3,380.4 252.2,379.3 252.2,379.3 250.6,375.6 248.6,374.5 249.5,372.9 241.4,354.1 239.3,349 234.7,338.2 
		232.2,344 230.3,348.5 	"/>
	<polygon id="XMLID_9_" class="st3" points="211.9,353.4 198.3,356.6 191.9,367.5 194.9,373.1 209.8,381.4 211.7,382.5 213.7,378.5 
		216.1,384.9 223.4,389 234.6,395.2 234.5,395 233.8,394.6 234,394.2 227.7,382.6 221.1,370.3 213.1,355.7 	"/>
	<polygon id="XMLID_8_" class="st4" points="187.3,359.2 198.3,356.6 211.9,353.4 230,349.1 231.1,348.9 230.3,348.5 209.9,337.1 
		205.6,334.7 194.7,328.6 191.7,333.8 175.1,362 185.2,359.7 186.5,357.5 	"/>
	<polygon id="XMLID_7_" class="st5" points="234,394.2 233.8,394.6 234.5,395 241.4,398.9 259.9,409.2 252.9,396.3 248.3,393.8 
		251.2,393.1 244.3,380.4 243.2,378.5 241.9,380.7 237.6,388.1 	"/>
	<polygon id="XMLID_6_" class="st6" points="272.8,388 269.3,388.8 251.2,393.1 248.3,393.8 252.9,396.3 269.7,405.7 277.1,393.2 
		281.3,386 274,387.7 274.7,389.1 	"/>
	<polygon id="XMLID_5_" class="st7" points="250.6,375.6 272.8,388 274.7,389.1 274,387.7 258,358.3 249.5,372.9 248.6,374.5 	"/>
	<polygon id="XMLID_4_" class="st8" points="181.3,381.9 184.8,383.8 205.5,395.3 206.2,393.9 203.3,388.5 194.9,373.1 191.9,367.5 
		187.3,359.2 186.5,357.5 185.2,359.7 176.8,374 174.4,378 	"/>
	<polygon id="XMLID_3_" class="st3" points="214.2,403.8 215.9,403.6 222.9,402.9 221.2,398.5 220.1,395.5 216.1,384.9 213.7,378.5 
		211.7,382.5 210.5,385 207.6,390.9 206.2,393.9 205.5,395.3 200.7,405.1 	"/>
</g>
</svg>
