<?xml version="1.0" encoding="utf-8"?>
<!-- Generator: Adobe Illustrator 19.0.0, SVG Export Plug-In . SVG Version: 6.00 Build 0)  -->
<svg version="1.1" id="Layer_1" xmlns="http://www.w3.org/2000/svg" xmlns:xlink="http://www.w3.org/1999/xlink" x="0px" y="0px"
	 viewBox="-197 288.7 215 217.3" style="enable-background:new -197 288.7 215 217.3;" xml:space="preserve">
<style type="text/css">
	.st0{fill:#F2DB11;}
	.st1{fill:url(#SVGID_1_);}
	.st2{fill:#F2DB11;fill-opacity:0.8115;}
	.st3{fill:#999999;}
	.st4{fill-opacity:0;}
	.st5{opacity:0.6;fill:none;stroke:#F2DB11;stroke-width:2;stroke-linejoin:round;stroke-miterlimit:10;}
	.st6{opacity:0.6;fill:none;stroke:#F2DB11;stroke-width:3;stroke-linejoin:round;stroke-miterlimit:10;}
	.st7{fill:#5B5B5B;}
	.st8{opacity:0.2;}
	.st9{fill:url(#SVGID_2_);}
</style>
<path class="st0" d="M-47.9,350.4L-47.9,350.4c24.8,23.1,25.4,62.6,1.5,88.2c-14.4,15.5-28.9,30.9-43.3,46.4
	c-14.9-13.9-29.9-27.9-44.8-41.8l0,0c-24.8-23.1-25.4-62.6-1.5-88.2l0,0C-112.1,329.4-72.6,327.4-47.9,350.4z"/>
<radialGradient id="SVGID_1_" cx="-139.1479" cy="342.7277" r="54.081" gradientTransform="matrix(1.9233 0 0 2.0184 178.1269 -297.0945)" gradientUnits="userSpaceOnUse">
	<stop  offset="0.1618" style="stop-color:#F2DB11;stop-opacity:0.8"/>
	<stop  offset="0.6873" style="stop-color:#F2DB11;stop-opacity:0.3"/>
	<stop  offset="1" style="stop-color:#F2DB11;stop-opacity:0"/>
</radialGradient>
<ellipse class="st1" cx="-89.5" cy="394.7" rx="107" ry="106"/>
<path class="st2" d="M-48.4,350.4L-48.4,350.4c24.8,23.1,25.4,62.6,1.5,88.2c-14.4,15.5-28.9,30.9-43.3,46.4
	c-14.9-13.9-29.9-27.9-44.8-41.8l0,0c-24.8-23.1-25.4-62.6-1.5-88.2l0,0C-112.6,329.4-73.2,327.4-48.4,350.4z"/>
<path class="st3" d="M-130,466.2L-130,466.2c0-4.2,3.4-7.6,7.6-7.6h62.5c2,0,3.9,0.8,5.4,2.2c1.4,1.4,2.2,3.4,2.2,5.4v4.8
	c-1.5,2.5-1.8,4.6,0,6.4v10.2c-1.6,2.6-1.7,4.6,0,5.9v3.1c-10.8,9.3-63.1,9.3-77.7,0l0-2.8c4.7,0.2,5.5-4.3,0-9l0-9.1
	c2.1-1.9,2.5-4.7,0-9V466.2z"/>
<path class="st4" d="M-92.8,326.5v-41.8"/>
<path class="st5" d="M-92.8,326.5v-37.8"/>
<path class="st4" d="M-196.7,364.6l37.2,7.7"/>
<path class="st5" d="M-196.7,364.6l37.2,7.7"/>
<path class="st4" d="M-166.8,309.5l29.2,28.1"/>
<path class="st6" d="M-166.8,309.5l29.2,28.1"/>
<path class="st4" d="M-47.9,335.6l25.1-29"/>
<path class="st5" d="M-47.9,335.6l25.1-29"/>
<path class="st4" d="M-22.8,373.2l40.5-9.7"/>
<path class="st5" d="M-22.8,373.2l40.5-9.7"/>
<path class="st7" d="M-82.3,498.2c-15.6,2.5-36.3-1-47.7-4.3c2.5-3,1.9-6.1,0-9C-123.7,489.9-93.6,498.3-82.3,498.2z"/>
<path class="st7" d="M-82.3,480.1c-15.6,2.5-36.3-1-47.7-4.3c1.3-2.4,1.1-5.5,0-9C-123.7,471.8-93.6,480.2-82.3,480.1z"/>
<g>
	<g class="st8">
		<path d="M-94.9,406.4c0-1.4-0.4-2.6-1.1-3.5c-0.7-0.9-1.7-1.6-2.9-2.2c-1.2-0.6-2.6-1-4.1-1.4c-1.5-0.4-3.1-0.7-4.8-1
			c-2.2-0.5-4.3-1.1-6.3-1.7s-3.8-1.6-5.3-2.8s-2.8-2.7-3.7-4.5c-0.9-1.8-1.4-4.1-1.4-6.8c0-3,0.5-5.6,1.6-7.8
			c1-2.2,2.5-4.1,4.3-5.5s3.9-2.6,6.3-3.3c2.4-0.7,5.2-1.1,8.2-1.1s6.1,0.3,9.1,0.9c3.1,0.6,5.7,1.4,7.9,2.3v8.9
			c-2.9-1.2-5.8-2-8.5-2.5s-5.3-0.8-7.6-0.8c-3.4,0-6.1,0.6-7.9,1.9c-1.9,1.2-2.8,3.1-2.8,5.6c0,1.4,0.3,2.6,0.9,3.6
			c0.6,0.9,1.4,1.7,2.5,2.3c1,0.6,2.3,1.1,3.6,1.5c1.4,0.4,2.8,0.7,4.3,1c2.4,0.5,4.7,1.1,6.9,1.8c2.2,0.7,4.1,1.6,5.8,2.8
			c1.7,1.2,3,2.7,4,4.7c1,1.9,1.5,4.4,1.5,7.3c0,3.1-0.6,5.7-1.7,8c-1.1,2.2-2.7,4.1-4.8,5.5c-2.1,1.5-4.6,2.5-7.6,3.3
			c-3,0.7-6.2,1.1-9.8,1.1c-3.1,0-6.1-0.3-9.1-0.9c-3-0.6-5.5-1.5-7.5-2.6v-8.8c2.8,1.2,5.5,2.1,8.2,2.7s5.4,0.8,8.2,0.8
			c1.6,0,3.3-0.1,4.8-0.4c1.6-0.3,3-0.7,4.3-1.4c1.3-0.7,2.3-1.5,3-2.7C-95.3,409.4-94.9,408.1-94.9,406.4z"/>
	</g>
	<g class="st8">
		<path d="M-65.1,423.2c0-1.4-0.4-2.6-1.1-3.5c-0.7-0.9-1.7-1.6-2.9-2.2c-1.2-0.6-2.6-1-4.1-1.4c-1.5-0.4-3.1-0.7-4.8-1
			c-2.2-0.5-4.3-1.1-6.3-1.7s-3.8-1.6-5.3-2.8s-2.8-2.7-3.7-4.5c-0.9-1.8-1.4-4.1-1.4-6.8c0-3,0.5-5.6,1.6-7.8
			c1-2.2,2.5-4.1,4.3-5.5s3.9-2.6,6.3-3.3c2.4-0.7,5.2-1.1,8.2-1.1s6.1,0.3,9.1,0.9c3.1,0.6,5.7,1.4,7.9,2.3v8.9
			c-2.9-1.2-5.8-2-8.5-2.5s-5.3-0.8-7.6-0.8c-3.4,0-6.1,0.6-7.9,1.9c-1.9,1.2-2.8,3.1-2.8,5.6c0,1.4,0.3,2.6,0.9,3.6
			c0.6,0.9,1.4,1.7,2.5,2.3c1,0.6,2.3,1.1,3.6,1.5c1.4,0.4,2.8,0.7,4.3,1c2.4,0.5,4.7,1.1,6.9,1.8c2.2,0.7,4.1,1.6,5.8,2.8
			c1.7,1.2,3,2.7,4,4.7c1,1.9,1.5,4.4,1.5,7.3c0,3.1-0.6,5.7-1.7,8c-1.1,2.2-2.7,4.1-4.8,5.5c-2.1,1.5-4.6,2.5-7.6,3.3
			c-3,0.7-6.2,1.1-9.8,1.1c-3.1,0-6.1-0.3-9.1-0.9c-3-0.6-5.5-1.5-7.5-2.6v-8.8c2.8,1.2,5.5,2.1,8.2,2.7s5.4,0.8,8.2,0.8
			c1.6,0,3.3-0.1,4.8-0.4c1.6-0.3,3-0.7,4.3-1.4c1.3-0.7,2.3-1.5,3-2.7C-65.4,426.2-65.1,424.9-65.1,423.2z"/>
	</g>
</g>
<radialGradient id="SVGID_2_" cx="-93.785" cy="402.6929" r="54.081" gradientUnits="userSpaceOnUse">
	<stop  offset="0" style="stop-color:#FFFFFF;stop-opacity:0.8"/>
	<stop  offset="0.4892" style="stop-color:#FFFFFF;stop-opacity:0.3"/>
	<stop  offset="0.9624" style="stop-color:#FFFFFF;stop-opacity:0"/>
</radialGradient>
<ellipse class="st9" cx="-93.8" cy="402.7" rx="55.6" ry="52.5"/>
</svg>
